<?xml version="1.0" standalone="no"?>
<!DOCTYPE svg PUBLIC "-//W3C//DTD SVG 20010904//EN"
 "http://www.w3.org/TR/2001/REC-SVG-20010904/DTD/svg10.dtd">
<svg version="1.0" xmlns="http://www.w3.org/2000/svg"
 width="640.000000pt" height="640.000000pt" viewBox="0 0 640.000000 640.000000"
 preserveAspectRatio="xMidYMid meet">

<g transform="translate(0.000000,640.000000) scale(0.100000,-0.100000)"
fill="#000000" stroke="none">
<path d="M3263 5734 c-67 -34 -95 -138 -56 -204 39 -67 137 -79 193 -25 39 38
56 110 37 156 -32 75 -108 107 -174 73z m107 -62 c24 -30 26 -82 5 -122 -49
-95 -168 8 -122 105 28 58 79 65 117 17z"/>
<path d="M3071 5708 c0 -18 4 -60 8 -93 5 -33 8 -61 7 -62 -1 -1 -31 38 -66
87 -55 75 -69 89 -90 87 -28 -2 -28 -2 -15 -174 7 -89 8 -93 30 -93 23 0 24 2
19 53 -3 28 -9 73 -13 100 -9 50 -1 62 16 25 16 -35 121 -163 133 -162 5 1 16
2 23 3 10 1 11 16 6 69 -5 37 -8 95 -8 130 -1 59 -2 62 -26 62 -22 0 -25 -4
-24 -32z"/>
<path d="M3525 5716 c-1 -6 -8 -56 -15 -111 -6 -55 -14 -110 -16 -121 -5 -19
0 -22 58 -28 35 -4 73 -10 86 -13 18 -4 22 -1 22 21 0 24 -3 26 -42 26 -69 0
-71 5 -58 101 6 46 14 94 16 105 4 17 0 22 -21 26 -15 3 -28 1 -30 -6z"/>
<path d="M2773 5702 c-7 -4 -16 -27 -22 -51 -5 -23 -11 -45 -14 -47 -3 -3 -20
13 -38 35 -28 32 -39 38 -62 34 -15 -3 -27 -8 -27 -12 0 -4 22 -28 49 -55 l48
-47 -22 -57 c-37 -94 -40 -106 -20 -99 9 4 22 7 29 7 8 0 18 25 26 60 7 33 16
60 21 60 4 0 24 -20 44 -45 32 -38 41 -44 64 -39 14 4 28 9 30 11 3 2 -21 30
-53 62 -34 34 -56 65 -53 73 49 123 48 118 29 118 -9 0 -22 -4 -29 -8z"/>
<path d="M3757 5640 c-99 -86 -52 -240 73 -240 60 0 101 31 126 96 14 37 15
51 5 84 -27 90 -134 122 -204 60z m133 -37 c45 -57 3 -163 -65 -163 -61 0 -86
103 -39 159 34 40 74 42 104 4z"/>
<path d="M2452 5621 c-39 -14 -70 -30 -68 -36 3 -5 22 -61 42 -122 21 -62 43
-113 49 -113 22 0 149 47 152 56 1 5 -1 15 -5 22 -7 10 -15 10 -43 -2 -73 -29
-76 -29 -88 5 -16 46 -15 47 25 55 35 6 51 24 40 43 -4 6 -21 5 -48 -5 -22 -7
-42 -14 -43 -14 -2 0 -5 10 -8 23 -4 12 -7 26 -9 31 -2 5 18 16 44 25 27 9 48
19 48 24 0 44 10 43 -88 8z"/>
<path d="M2222 5534 c-86 -40 -92 -45 -82 -64 10 -19 13 -19 33 -5 12 8 27 15
35 15 11 0 70 -113 95 -183 6 -15 10 -16 29 -6 13 6 24 13 26 14 1 1 -15 37
-37 81 -58 119 -58 123 -22 137 31 11 37 23 23 43 -5 7 -38 -4 -100 -32z"/>
<path d="M4090 5563 c-54 -20 -97 -99 -86 -158 10 -54 96 -115 162 -115 10 0
57 110 50 117 -1 1 -13 4 -26 5 -21 3 -26 -3 -34 -34 -11 -46 -35 -50 -71 -13
-31 30 -33 77 -5 122 25 42 60 51 111 27 35 -15 42 -16 50 -3 14 23 11 29 -26
45 -34 14 -96 18 -125 7z"/>
<path d="M4290 5388 c-29 -57 -57 -109 -62 -115 -7 -9 -3 -16 16 -24 14 -7 28
-10 30 -8 2 2 29 54 59 114 52 100 55 111 40 123 -9 6 -20 12 -24 12 -3 0 -30
-46 -59 -102z"/>
<path d="M4428 5356 c-3 -81 -6 -98 -30 -133 l-27 -41 24 -16 c24 -16 25 -15
44 21 24 48 51 72 130 116 l65 36 -27 12 c-24 11 -31 8 -82 -30 l-55 -42 6 58
c3 32 7 64 9 70 3 7 -9 20 -24 28 l-29 15 -4 -94z"/>
<path d="M1932 5385 c-91 -53 -100 -61 -84 -77 10 -10 19 -8 43 6 36 21 29 29
95 -91 25 -46 49 -83 52 -83 4 0 15 7 26 15 18 13 18 15 -1 42 -11 15 -37 58
-57 95 l-37 67 31 16 c30 15 38 45 15 51 -5 1 -43 -17 -83 -41z"/>
<path d="M4615 5189 c-55 -38 -104 -71 -110 -73 -5 -3 1 -14 14 -26 l24 -21
28 27 28 27 41 -28 c22 -15 40 -30 40 -32 0 -2 -6 -19 -14 -38 -14 -32 -13
-34 11 -50 13 -9 26 -15 28 -13 1 2 21 60 43 131 l40 127 -26 20 c-13 11 -30
19 -36 19 -6 -1 -56 -32 -111 -70z m100 -28 c-9 -28 -20 -51 -25 -51 -4 0 -18
9 -31 20 -22 19 -23 21 -6 31 9 5 29 21 45 34 15 13 29 22 31 20 1 -2 -5 -26
-14 -54z"/>
<path d="M1703 5235 c-40 -17 -73 -69 -73 -114 0 -73 74 -151 143 -151 35 0
89 40 110 82 31 64 -2 146 -75 184 -34 17 -64 17 -105 -1z m101 -65 c42 -37
54 -81 32 -115 -22 -33 -57 -40 -95 -21 -57 30 -79 108 -41 146 28 28 64 25
104 -10z"/>
<path d="M4816 5031 l-87 -100 33 -29 c93 -82 95 -83 109 -66 11 13 6 21 -32
53 l-44 38 38 44 c20 24 53 62 72 85 34 40 34 41 16 58 -18 16 -22 12 -105
-83z"/>
<path d="M1446 5009 l-56 -51 87 -92 c48 -50 90 -92 93 -93 3 -1 14 4 24 12
19 15 19 16 -19 55 -38 39 -38 40 -19 55 26 19 43 19 89 -5 36 -18 40 -19 57
-3 10 9 18 20 18 24 0 12 -108 49 -124 43 -12 -5 -14 1 -9 29 4 27 1 39 -16
56 -34 34 -64 26 -125 -30z m96 -16 c23 -20 22 -32 -1 -60 -24 -28 -29 -28
-58 -1 -29 27 -29 43 -1 62 28 20 37 20 60 -1z"/>
<path d="M2910 4935 c-162 -40 -366 -89 -452 -110 l-158 -37 0 -44 c0 -32 4
-44 15 -44 8 0 15 -5 15 -10 0 -7 -6 -7 -19 0 -12 6 -114 10 -260 10 l-241 0
0 -105 0 -105 1440 -2 1440 -3 0 110 0 110 -262 0 -263 0 -3 43 c-2 23 -5 42
-8 42 -2 0 -210 50 -462 110 -252 61 -465 110 -473 109 -8 0 -147 -34 -309
-74z m765 -89 c340 -81 431 -106 433 -119 2 -10 -2 -19 -10 -22 -17 -6 -1758
-11 -1748 -5 4 3 9 14 11 25 4 17 57 32 424 121 231 56 429 102 440 102 11 1
214 -45 450 -102z m485 -154 c0 -10 -36 -9 -46 1 -4 4 5 7 19 7 15 0 27 -4 27
-8z"/>
<path d="M4993 4867 c-61 -23 -115 -45 -119 -50 -4 -4 1 -16 10 -26 17 -19 20
-19 52 -4 32 16 35 15 55 -3 39 -35 43 -54 19 -86 -21 -28 -21 -30 -4 -49 9
-10 21 -19 25 -19 4 0 37 52 74 116 l67 116 -23 24 c-12 13 -27 24 -33 23 -6
0 -61 -19 -123 -42z m96 -48 l-32 -51 -26 27 c-14 15 -21 29 -16 31 6 3 28 13
50 23 57 28 58 26 24 -30z"/>
<path d="M1293 4835 c-18 -8 -42 -29 -53 -47 -37 -60 -21 -130 40 -182 64 -53
167 -26 200 54 25 61 -17 147 -87 176 -40 17 -59 17 -100 -1z m71 -49 c46 -19
76 -54 76 -90 0 -63 -61 -85 -125 -46 -74 46 -66 132 13 149 1 1 18 -5 36 -13z"/>
<path d="M5159 4671 c-104 -76 -106 -78 -90 -99 l16 -21 39 29 c48 36 50 36
64 6 11 -24 6 -38 -29 -94 -14 -22 -6 -51 17 -59 10 -3 64 88 64 109 0 10 10
13 35 10 44 -5 75 19 75 58 0 21 -72 142 -83 139 -1 0 -50 -35 -108 -78z m127
-8 c20 -26 17 -61 -6 -73 -22 -12 -47 -3 -70 25 -12 14 -10 20 16 40 35 29 43
30 60 8z"/>
<path d="M1099 4583 c-14 -16 -37 -47 -52 -70 l-27 -43 37 -19 c21 -11 72 -43
113 -70 l75 -51 17 23 c31 38 58 102 58 134 0 50 -50 81 -94 58 -24 -13 -26
-12 -26 9 0 27 -29 56 -56 56 -11 0 -31 -12 -45 -27z m69 -63 c2 -14 -3 -33
-11 -44 -13 -17 -14 -17 -45 1 l-32 20 21 27 c27 34 63 32 67 -4z m101 -29
c15 -10 10 -45 -12 -75 -13 -17 -15 -17 -45 -2 -38 19 -39 25 -11 60 21 27 43
32 68 17z"/>
<path d="M5395 4504 c-11 -9 -62 -38 -112 -65 l-93 -50 17 -25 c15 -24 16 -24
42 -7 14 9 65 39 113 66 84 46 87 49 76 73 -13 28 -16 29 -43 8z"/>
<path d="M979 4388 c-10 -23 -8 -30 16 -62 34 -44 25 -60 -29 -54 -39 5 -44 2
-59 -25 l-17 -29 72 6 73 7 40 -71 c22 -38 43 -70 46 -70 3 0 11 12 18 26 10
23 8 30 -24 67 -19 22 -35 44 -35 49 0 4 26 8 59 8 51 0 61 3 75 25 9 13 16
27 16 31 0 4 -38 4 -84 0 l-85 -6 -35 62 c-35 62 -35 62 -47 36z"/>
<path d="M2050 4350 l0 -50 1180 0 1180 0 0 50 0 50 -1180 0 -1180 0 0 -50z"/>
<path d="M5445 4280 c-88 -43 -125 -77 -125 -118 0 -34 31 -86 66 -108 31 -21
69 -13 177 36 61 27 66 32 57 50 -14 26 -16 26 -101 -15 -41 -19 -83 -35 -96
-35 -32 0 -55 28 -51 64 3 28 11 35 94 76 86 42 91 46 81 68 -5 12 -13 22 -16
21 -3 0 -42 -18 -86 -39z"/>
<path d="M2894 4231 c-38 -23 -68 -64 -82 -111 -6 -22 -12 -309 -16 -787 l-6
-753 65 0 66 0 -2 98 -2 97 47 3 46 3 0 -100 0 -101 60 0 60 0 -2 763 -3 762
-25 50 c-44 88 -133 121 -206 76z m100 -166 c20 -20 29 -73 22 -122 -3 -21 -5
-265 -6 -543 l0 -505 -45 3 -45 4 0 567 c0 497 2 569 16 589 18 26 37 28 58 7z
m13 -1217 c-3 -7 -5 -2 -5 12 0 14 2 19 5 13 2 -7 2 -19 0 -25z"/>
<path d="M3280 4175 l0 -75 50 0 50 0 0 -745 0 -745 85 0 85 0 0 745 0 745 55
0 55 0 0 75 0 75 -190 0 -190 0 0 -75z"/>
<path d="M3827 4243 c-2 -5 -1 -350 2 -768 6 -758 6 -760 28 -801 71 -134 209
-133 278 1 l30 59 -1 755 -1 756 -63 3 -63 3 7 -725 c6 -742 6 -766 -31 -780
-8 -3 -25 5 -39 19 l-24 24 0 731 0 730 -59 0 c-33 0 -62 -3 -64 -7z"/>
<path d="M2240 4165 l0 -75 50 0 50 0 0 -745 0 -745 83 0 82 0 0 742 0 743 58
3 57 3 0 74 0 75 -190 0 -190 0 0 -75z"/>
<path d="M829 4050 c-6 -16 -11 -32 -12 -34 -1 -3 47 -44 107 -92 84 -67 110
-84 117 -73 16 25 9 44 -22 63 -32 19 -33 28 -9 91 9 23 13 25 48 19 35 -5 40
-4 45 17 4 13 7 27 7 32 0 4 -61 7 -136 7 l-135 0 -10 -30z m151 -24 c0 -10
-23 -66 -27 -66 -4 0 -66 44 -87 62 -6 4 18 8 52 8 34 0 62 -2 62 -4z"/>
<path d="M5523 3987 c-62 -18 -113 -36 -113 -42 1 -33 17 -35 90 -11 41 13 84
27 94 31 11 5 -17 -33 -61 -83 -60 -68 -80 -97 -76 -112 3 -11 10 -20 17 -20
27 2 240 68 243 76 1 5 -1 15 -6 22 -8 14 -12 13 -166 -35 -11 -3 13 30 56 77
60 65 75 87 71 106 -5 30 -11 30 -149 -9z"/>
<path d="M745 3777 c-5 -15 -35 -176 -35 -188 0 -5 9 -9 20 -9 14 0 21 9 26
35 7 41 7 41 129 16 50 -10 93 -17 98 -14 4 2 7 14 7 26 0 21 -8 24 -110 41
-60 10 -110 21 -110 25 0 3 4 20 9 38 8 27 6 32 -11 36 -10 3 -21 0 -23 -6z"/>
<path d="M5595 3713 c-60 -14 -111 -27 -113 -28 -2 -1 0 -15 4 -29 5 -20 11
-25 23 -21 9 4 65 18 126 31 60 14 111 26 112 28 1 1 0 12 -4 24 -6 26 -9 26
-148 -5z"/>
<path d="M5628 3569 c-161 -81 -159 -93 21 -138 69 -17 129 -31 133 -31 13 0
9 50 -4 54 -7 2 -55 10 -106 17 -51 6 -89 15 -85 19 4 3 48 24 96 45 80 35 88
40 85 63 -2 14 -7 27 -13 28 -5 2 -63 -24 -127 -57z"/>
<path d="M700 3496 c0 -24 3 -26 44 -26 24 0 63 -3 88 -6 l45 -6 -98 -50 c-89
-45 -99 -53 -99 -77 l0 -28 113 -7 c61 -4 121 -8 132 -9 14 -1 21 5 23 20 3
20 -2 22 -85 28 -48 3 -92 7 -96 8 -4 1 36 25 90 53 80 42 99 56 101 76 3 25
2 25 -95 32 -54 4 -113 9 -130 13 -30 5 -33 3 -33 -21z"/>
<path d="M5638 3333 l-108 -4 0 -84 c0 -82 1 -85 23 -85 22 0 23 3 19 60 l-4
60 41 0 41 0 0 -45 c0 -38 3 -45 20 -45 17 0 20 7 20 44 0 40 2 44 27 49 40 7
45 1 42 -57 -3 -45 -1 -51 16 -51 18 0 20 7 20 80 0 93 19 83 -157 78z"/>
<path d="M904 3225 c-3 -7 -4 -35 -2 -61 l3 -49 -37 -3 -38 -3 0 45 c0 39 -3
46 -20 46 -17 0 -20 -7 -20 -45 0 -45 0 -45 -35 -45 l-35 0 0 55 c0 48 -2 55
-20 55 -18 0 -20 -7 -20 -80 l0 -80 135 0 136 0 -2 84 c-1 74 -4 85 -21 89
-11 3 -21 0 -24 -8z"/>
<path d="M5530 3087 c0 -27 20 -37 78 -37 30 0 33 -2 26 -22 -10 -36 -21 -45
-69 -58 -40 -11 -45 -16 -45 -42 0 -26 3 -29 23 -22 47 14 92 35 99 47 4 7 14
2 29 -16 17 -23 28 -28 58 -25 43 4 56 25 64 114 l6 61 -87 7 c-48 4 -108 9
-134 13 -46 5 -48 5 -48 -20z m229 -53 c2 -2 0 -18 -5 -36 -18 -61 -84 -46
-84 19 l0 35 43 -7 c23 -4 44 -9 46 -11z"/>
<path d="M871 2969 c-34 -28 -61 -55 -61 -60 0 -4 -25 9 -57 31 -31 22 -59 40
-63 40 -4 0 -5 -13 -2 -30 2 -16 7 -30 11 -30 13 0 113 -62 108 -66 -3 -3 -27
-9 -54 -12 -44 -7 -48 -10 -45 -32 2 -14 5 -26 5 -26 1 -1 43 4 92 12 50 7
107 14 128 14 34 0 37 2 37 30 0 33 -1 33 -73 21 -26 -4 -50 -4 -52 0 -3 4 19
29 50 56 41 36 55 55 55 76 0 15 -4 27 -9 27 -5 0 -37 -23 -70 -51z"/>
<path d="M5501 2833 c-18 -63 -14 -101 14 -128 40 -41 76 -34 126 25 24 28 51
50 62 50 16 0 18 -5 15 -37 -3 -21 -8 -45 -12 -54 -5 -12 -1 -18 14 -22 26 -7
40 24 40 88 0 35 -5 48 -26 64 -41 33 -62 26 -120 -36 -45 -49 -54 -55 -68
-44 -20 17 -20 41 -2 86 13 29 12 34 -1 39 -26 11 -32 7 -42 -31z"/>
<path d="M838 2722 c-95 -23 -108 -29 -108 -47 0 -32 8 -35 58 -19 26 7 48 14
49 14 4 0 23 -75 23 -91 0 -12 -14 -19 -47 -26 -43 -8 -48 -11 -45 -33 1 -13
4 -25 6 -27 2 -2 49 8 104 22 55 14 110 25 121 25 25 0 34 14 26 41 -5 16 -12
19 -28 15 -12 -3 -38 -9 -58 -12 -35 -6 -37 -5 -43 31 -4 20 -9 42 -12 49 -4
9 13 17 54 25 55 11 59 13 54 36 -5 31 -13 31 -154 -3z"/>
<path d="M5466 2635 c-13 -36 -4 -41 119 -69 69 -16 127 -27 129 -25 2 2 7 14
10 26 6 19 2 23 -31 28 -43 8 -184 42 -206 51 -8 3 -17 -2 -21 -11z"/>
<path d="M1800 2468 l0 -68 1440 0 1440 0 0 68 0 67 -1440 0 -1440 0 0 -67z
m1623 45 c-13 -2 -33 -2 -45 0 -13 2 -3 4 22 4 25 0 35 -2 23 -4z m500 0 c-7
-2 -19 -2 -25 0 -7 3 -2 5 12 5 14 0 19 -2 13 -5z m84 1 c-3 -3 -12 -4 -19 -1
-8 3 -5 6 6 6 11 1 17 -2 13 -5z m116 -1 c-7 -2 -21 -2 -30 0 -10 3 -4 5 12 5
17 0 24 -2 18 -5z m220 0 c-35 -2 -91 -2 -125 0 -35 2 -7 3 62 3 69 0 97 -1
63 -3z m215 0 c-16 -2 -40 -2 -55 0 -16 2 -3 4 27 4 30 0 43 -2 28 -4z m90 0
c-10 -2 -28 -2 -40 0 -13 2 -5 4 17 4 22 1 32 -1 23 -4z"/>
<path d="M973 2475 c-33 -14 -49 -51 -55 -120 -6 -63 -68 -30 -68 36 0 15 -6
20 -22 17 -18 -2 -22 -8 -19 -28 5 -36 38 -97 56 -104 56 -21 99 8 110 75 10
65 14 77 31 83 19 7 54 -49 54 -86 0 -29 4 -31 31 -20 26 11 0 99 -40 134 -36
32 -35 32 -78 13z"/>
<path d="M5650 2450 l-10 -38 -106 35 c-87 29 -108 33 -115 22 -19 -30 -6 -39
97 -71 95 -29 105 -34 99 -53 -12 -37 -10 -59 5 -63 12 -2 23 21 44 85 16 48
31 93 33 99 2 6 -5 14 -16 17 -17 4 -23 -2 -31 -33z"/>
<path d="M1790 2283 l0 -68 1440 0 1440 0 0 68 0 67 -1440 0 -1440 0 0 -67z
m113 -50 c-13 -2 -35 -2 -50 0 -16 2 -5 4 22 4 28 0 40 -2 28 -4z m2114 0
c-356 -2 -938 -2 -1295 0 -356 1 -64 2 648 2 712 0 1004 -1 647 -2z"/>
<path d="M5330 2244 c-28 -63 -31 -77 -19 -85 22 -14 24 -12 43 41 10 28 22
52 27 55 10 7 69 -22 69 -33 -1 -4 -7 -18 -15 -32 -19 -32 -19 -47 0 -54 11
-4 20 6 31 34 9 22 20 40 25 40 13 0 59 -23 59 -29 0 -3 -12 -26 -25 -50 -20
-34 -23 -46 -13 -53 7 -4 16 -8 21 -8 7 0 80 141 75 146 -6 5 -232 104 -238
104 -4 0 -22 -34 -40 -76z"/>
<path d="M992 2230 c-37 -23 -72 -75 -72 -108 0 -69 62 -132 130 -132 75 0
150 67 150 135 0 38 -36 95 -70 112 -37 19 -101 16 -138 -7z m136 -46 c30 -21
30 -73 0 -101 -52 -47 -105 -56 -138 -23 -32 32 -26 73 15 109 40 35 87 41
123 15z"/>
<path d="M1789 2176 c-7 -7 2 -126 10 -126 4 0 6 13 3 30 l-4 30 1427 0 1427
0 -5 -22 c-3 -12 -2 -17 3 -12 5 5 10 29 12 54 l3 45 -1436 3 c-790 1 -1437 0
-1440 -2z"/>
<path d="M5235 2058 c-17 -25 -20 -23 98 -87 42 -23 77 -48 77 -54 0 -7 -7
-23 -16 -36 -14 -19 -14 -25 -3 -32 8 -5 16 -9 19 -9 11 0 101 170 95 180 -12
19 -33 10 -45 -20 -7 -16 -15 -30 -19 -30 -3 0 -48 25 -98 54 -92 54 -93 54
-108 34z"/>
<path d="M1191 1919 c-51 -33 -94 -59 -96 -57 -1 2 -10 18 -19 36 -14 28 -20
31 -32 21 -18 -15 -15 -24 43 -116 49 -77 50 -78 72 -64 11 7 10 14 -8 39 -11
17 -21 32 -21 35 0 3 35 26 78 53 125 77 115 68 95 92 l-18 22 -94 -61z"/>
<path d="M5143 1911 c-11 -17 -1 -26 100 -91 103 -67 112 -70 124 -54 7 10 12
22 11 26 -3 8 -206 138 -216 138 -4 0 -13 -9 -19 -19z"/>
<path d="M2345 1863 c-86 -22 -138 -133 -114 -244 23 -105 110 -159 225 -138
40 8 50 6 82 -16 l37 -25 17 22 c23 31 23 34 -12 48 -16 7 -30 14 -30 16 0 1
10 19 21 39 25 41 30 137 10 196 -27 84 -130 128 -236 102z m116 -69 c54 -27
75 -117 45 -189 l-15 -35 -36 22 c-31 18 -38 19 -46 7 -14 -23 -10 -36 12 -42
12 -3 19 -10 15 -15 -8 -13 -68 -2 -90 17 -65 57 -61 190 8 232 38 23 67 24
107 3z"/>
<path d="M3504 1860 c-34 -13 -64 -59 -64 -97 0 -51 49 -96 120 -113 67 -15
100 -35 100 -59 0 -51 -98 -71 -138 -28 -12 13 -22 29 -22 35 0 13 -66 17 -74
4 -2 -4 4 -27 14 -49 26 -59 64 -76 158 -71 69 3 76 6 103 36 23 26 29 42 29
78 0 57 -36 97 -101 114 -81 20 -114 35 -118 55 -8 43 82 62 119 25 11 -11 20
-24 20 -28 0 -4 16 -6 35 -4 24 3 35 9 35 21 0 27 -30 62 -66 77 -37 15 -117
18 -150 4z"/>
<path d="M4040 1788 l0 -78 -80 0 -80 0 0 75 0 75 -35 0 -35 0 0 -190 0 -190
35 0 35 0 0 85 0 85 80 0 80 0 0 -85 0 -85 35 0 35 0 0 189 0 189 -35 4 -35 4
0 -78z"/>
<path d="M4200 1863 c0 -2 -1 -87 -1 -190 l0 -188 35 -3 36 -3 0 189 0 190
-35 4 c-19 2 -35 3 -35 1z"/>
<path d="M2761 1838 c-5 -13 -36 -94 -70 -181 -33 -87 -61 -163 -61 -168 0 -6
17 -9 37 -7 33 3 38 7 51 46 l14 42 79 0 80 0 19 -45 c18 -41 22 -45 55 -45
19 0 35 3 35 7 0 4 -33 90 -72 190 l-73 183 -43 0 c-35 0 -44 -4 -51 -22z m77
-120 c11 -29 23 -61 27 -70 6 -16 0 -18 -49 -18 -31 0 -56 3 -56 8 0 15 45
132 51 132 3 0 15 -24 27 -52z"/>
<path d="M3050 1670 l0 -190 40 0 40 0 0 80 0 80 30 0 c35 0 53 -16 109 -99
39 -57 44 -61 81 -61 22 0 40 3 40 7 0 14 -84 135 -103 148 -24 16 -23 17 18
30 38 13 69 72 60 114 -3 16 -18 41 -32 55 -25 25 -30 26 -154 26 l-129 0 0
-190z m228 118 c17 -17 15 -48 -5 -70 -12 -14 -31 -18 -80 -18 l-63 0 0 50 0
50 68 0 c40 0 73 -5 80 -12z"/>
<path d="M4625 1560 c-13 -21 -216 -167 -307 -220 -48 -29 -88 -54 -88 -57 0
-3 16 5 36 16 28 17 39 19 50 10 8 -7 17 -9 21 -5 3 3 0 6 -7 6 -9 0 -5 9 10
25 25 26 46 34 35 13 -4 -7 6 2 22 20 15 18 32 32 36 32 5 0 33 20 64 45 51
42 65 49 86 46 4 0 6 2 5 7 -2 4 7 18 19 31 25 27 25 27 100 -43 33 -31 40
-43 31 -53 -6 -8 -8 -16 -4 -20 3 -3 6 -1 6 5 0 7 7 12 15 12 11 0 13 -5 8
-13 -11 -19 -108 -104 -125 -109 -7 -3 -10 -8 -7 -11 4 -5 125 86 156 117 1 1
-33 37 -76 80 -53 52 -81 74 -86 66z"/>
<path d="M1767 1453 c-43 -40 -77 -75 -77 -78 0 -11 241 -178 326 -226 41 -23
41 -23 41 -4 0 8 -4 12 -8 10 -4 -3 -14 -2 -23 1 -14 5 -14 9 -4 23 12 14 11
14 -4 3 -20 -16 -39 -6 -156 78 -35 25 -74 51 -85 59 -36 24 -67 54 -67 64 0
5 7 4 15 -3 10 -9 15 -9 15 -1 0 6 -5 11 -12 11 -7 0 8 20 32 45 24 24 47 42
52 39 5 -3 8 -2 7 3 -4 22 3 24 29 8 l27 -18 -19 21 c-28 32 -11 27 34 -9 22
-18 37 -36 34 -40 -3 -5 2 -6 10 -3 9 3 16 2 16 -3 0 -5 17 -17 38 -27 46 -22
45 -22 -59 56 l-86 64 -76 -73z"/>
<path d="M4600 1471 c0 -6 4 -13 10 -16 6 -3 7 1 4 9 -7 18 -14 21 -14 7z"/>
<path d="M1780 1410 c-8 -5 -10 -10 -5 -10 6 0 17 5 25 10 8 5 11 10 5 10 -5
0 -17 -5 -25 -10z"/>
<path d="M2061 1364 c9 -11 14 -24 12 -31 -2 -6 1 -15 8 -19 9 -5 10 -2 6 9
-7 19 4 22 20 6 6 -6 16 -10 21 -8 5 2 -11 17 -37 33 -30 19 -41 22 -30 10z"/>
<path d="M1790 1350 c-9 -6 -10 -10 -3 -10 6 0 15 5 18 10 8 12 4 12 -15 0z"/>
<path d="M2155 1309 c3 -8 29 -25 58 -38 28 -13 54 -27 57 -30 5 -6 41 -21 85
-35 11 -4 -24 15 -77 42 -54 27 -105 55 -113 62 -13 11 -15 10 -10 -1z"/>
<path d="M4555 1270 c4 -22 -39 -56 -133 -105 -29 -15 -51 -30 -48 -32 8 -9
246 140 246 153 0 4 -11 -1 -25 -10 -30 -20 -36 -20 -29 -1 4 8 1 15 -4 15 -6
0 -9 -9 -7 -20z"/>
<path d="M4120 1236 c-98 -50 -229 -96 -385 -137 -60 -15 -102 -28 -92 -29 56
-1 347 90 454 143 39 19 73 33 75 32 2 -2 14 5 28 15 39 31 12 22 -80 -24z"/>
<path d="M1926 1253 c-6 -14 -5 -15 5 -6 7 7 10 15 7 18 -3 3 -9 -2 -12 -12z"/>
<path d="M4270 1260 c0 -5 5 -10 10 -10 6 0 10 5 10 10 0 6 -4 10 -10 10 -5 0
-10 -4 -10 -10z"/>
<path d="M4487 1257 c-3 -7 3 -13 14 -13 13 0 15 3 7 13 -6 7 -12 13 -13 13
-2 0 -5 -6 -8 -13z"/>
<path d="M2188 1244 c12 -8 28 -13 35 -11 7 3 5 6 -5 6 -10 1 -18 6 -18 11 0
6 -8 10 -17 10 -14 0 -13 -3 5 -16z"/>
<path d="M4196 1231 c-4 -5 3 -7 14 -4 23 6 26 13 6 13 -8 0 -17 -4 -20 -9z"/>
<path d="M2250 1221 c0 -5 5 -13 10 -16 6 -3 10 -2 10 4 0 5 -4 13 -10 16 -5
3 -10 2 -10 -4z"/>
<path d="M4165 1210 c-3 -5 -1 -10 4 -10 6 0 11 5 11 10 0 6 -2 10 -4 10 -3 0
-8 -4 -11 -10z"/>
<path d="M2425 1175 c49 -23 183 -66 201 -64 9 0 -236 88 -246 88 -3 0 18 -11
45 -24z"/>
<path d="M2073 1155 c0 -8 4 -12 9 -9 5 3 6 10 3 15 -9 13 -12 11 -12 -6z"/>
<path d="M4000 1149 c0 -5 5 -7 10 -4 6 3 10 8 10 11 0 2 -4 4 -10 4 -5 0 -10
-5 -10 -11z"/>
<path d="M2080 1116 c0 -14 319 -157 347 -156 16 1 -43 29 -62 30 -20 1 -20 1
-1 15 11 8 15 15 10 15 -6 0 -15 -5 -21 -11 -12 -12 -86 17 -193 75 -62 34
-80 41 -80 32z"/>
<path d="M4243 1105 c0 -7 6 -11 14 -8 7 3 13 6 13 8 0 2 -6 5 -13 8 -8 3 -14
-1 -14 -8z"/>
<path d="M4315 1106 c-16 -8 -39 -21 -50 -30 -11 -9 5 -5 35 10 30 14 57 28
59 30 9 8 -16 3 -44 -10z"/>
<path d="M1348 1044 c-72 -92 -122 -163 -117 -167 13 -11 167 -116 311 -214
116 -78 172 -111 185 -107 13 4 15 3 5 -4 -11 -7 -3 -16 31 -40 l45 -30 73 74
c40 41 69 74 63 74 -29 0 -380 227 -369 239 2 2 21 -10 42 -26 171 -132 450
-275 713 -365 525 -180 1139 -200 1658 -54 242 68 546 196 664 277 14 11 29
19 33 19 7 0 161 100 220 143 l40 29 -35 -32 c-45 -40 -171 -123 -280 -185
-47 -26 -87 -49 -89 -51 -2 -1 29 -36 67 -76 l71 -73 23 21 c13 11 41 32 63
46 37 24 486 328 493 334 2 1 -36 55 -85 119 l-88 117 -55 -6 c-30 -3 -95 -8
-145 -12 -89 -6 -91 -7 -175 -64 -134 -91 -216 -138 -350 -205 -391 -194 -796
-278 -1240 -255 -287 14 -544 68 -795 167 -208 82 -309 135 -516 273 l-115 77
-85 7 c-46 3 -111 9 -145 12 l-61 6 -55 -68z"/>
<path d="M2648 1103 c7 -3 16 -2 19 1 4 3 -2 6 -13 5 -11 0 -14 -3 -6 -6z"/>
<path d="M2688 1093 c7 -3 16 -2 19 1 4 3 -2 6 -13 5 -11 0 -14 -3 -6 -6z"/>
<path d="M2765 1075 c28 -7 61 -13 75 -13 14 0 -2 6 -35 14 -76 17 -107 16
-40 -1z"/>
<path d="M3535 1060 l-40 -7 40 -1 c22 0 51 4 65 8 l25 8 -25 0 c-14 -1 -43
-4 -65 -8z"/>
<path d="M3720 1060 c-8 -5 -10 -10 -5 -10 6 0 17 5 25 10 8 5 11 10 5 10 -5
0 -17 -5 -25 -10z"/>
<path d="M4224 1060 c-6 -6 -59 -30 -120 -55 -60 -24 -104 -44 -98 -45 13 0
222 85 232 94 3 3 3 8 1 11 -3 2 -10 0 -15 -5z"/>
<path d="M2905 1050 c40 -9 132 -13 124 -6 -2 2 -40 6 -84 9 -57 4 -69 3 -40
-3z"/>
<path d="M3428 1043 c12 -2 32 -2 45 0 12 2 2 4 -23 4 -25 0 -35 -2 -22 -4z"/>
<path d="M2340 1030 c-9 -6 -10 -10 -3 -10 6 0 15 5 18 10 8 12 4 12 -15 0z"/>
<path d="M3128 1033 c50 -2 134 -2 185 0 50 1 9 3 -93 3 -102 0 -143 -2 -92
-3z"/>
<path d="M4027 1018 c-7 -5 5 -6 27 -3 21 2 41 7 44 9 8 8 -58 2 -71 -6z"/>
<path d="M3430 1000 c-9 -6 -10 -10 -3 -10 6 0 15 5 18 10 8 12 4 12 -15 0z"/>
<path d="M2420 996 c0 -3 9 -10 20 -16 11 -6 20 -8 20 -6 0 3 -9 10 -20 16
-11 6 -20 8 -20 6z"/>
<path d="M2938 983 c6 -2 18 -2 25 0 6 3 1 5 -13 5 -14 0 -19 -2 -12 -5z"/>
<path d="M3955 950 c-13 -6 -15 -9 -5 -9 8 0 22 4 30 9 18 12 2 12 -25 0z"/>
<path d="M2470 947 c0 -10 228 -67 350 -88 160 -27 480 -37 641 -20 165 18
480 83 466 98 -2 2 -48 -8 -102 -22 -256 -66 -590 -92 -847 -66 -110 12 -332
54 -423 81 -63 18 -85 23 -85 17z"/>
</g>
</svg>
